# AST/ASF file generated using VICON BodyLanguage
# -----------------------------------------------
:version 1.10
:name VICON
:units
  mass 1.0
  length 0.45
  angle deg
:documentation
   .ast/.asf automatically generated from VICON data using
   VICON BodyBuilder and BodyLanguage model FoxedUp or BRILLIANT.MOD
:root
   order TX TY TZ RX RY RZ
   axis XYZ
   position 0 0 0  
   orientation 0 0 0 
:bonedata
  begin
     id 1 
     name lhipjoint
     direction 0.541323 -0.757556 0.364798 
     length 2.47576 
     axis 0 0 0  XYZ
  end
  begin
     id 2 
     name lfemur
     direction 0.34202 -0.939693 0  
     length 7.46493  
     axis 0 0 20  XYZ
    dof rx ry rz
    limits (-160.0 20.0)
           (-70.0 70.0)
           (-60.0 70.0)
  end
  begin
     id 3 
     name ltibia
     direction 0.34202 -0.939693 0   
     length 7.73805   
     axis 0 0 20   XYZ
    dof rx
    limits (-10.0 170.0)
  end
  begin
     id 4 
     name lfoot
     direction 0.107174 -0.294458 0.949636   
     length 2.25864   
     axis -90 7.62852e-016 20   XYZ
    dof rx rz
    limits (-45.0 90.0)
           (-70.0 20.0)
  end
  begin
     id 5 
     name ltoes
     direction 1.53606e-011 -4.21934e-011 1   
     length 1.12451   
     axis -90 7.62852e-016 20   XYZ
    dof rx
    limits (-90.0 20.0)
  end
  begin
     id 6 
     name rhipjoint
     direction -0.524745 -0.766967 0.36933   
     length 2.44538  
     axis 0 0 0  XYZ 
  end
  begin
     id 7 
     name rfemur
     direction -0.34202 -0.939693 0   
     length 7.61604   
     axis 0 0 -20   XYZ
    dof rx ry rz
    limits (-160.0 20.0)
           (-70.0 70.0)
           (-70.0 60.0)
  end
  begin
     id 8 
     name rtibia
     direction -0.34202 -0.939693 0   
     length 7.61056   
     axis 0 0 -20   XYZ
    dof rx
    limits (-10.0 170.0)
 end
 begin
     id 9 
     name rfoot
     direction -0.12616 -0.346623 0.929482   
     length 2.46372  
     axis -90 -7.62852e-016 -20   XYZ
    dof rx rz
    limits (-45.0 90.0)
           (-20.0 70.0)
  end
  begin
     id 10 
     name rtoes
     direction -1.53531e-011 -4.22004e-011 1   
     length 1.21611   
     axis -90 -7.62852e-016 -20   XYZ
    dof rx
    limits (-90.0 20.0)
  end
  begin
     id 11 
     name lowerback
     direction -0.000778023 0.997293 -0.0735223   
     length 2.06139   
     axis 0 0 0   XYZ
    dof rx ry rz
    limits (-20.0 45.0)
           (-30.0 30.0)
           (-30.0 30.0)
  end
  begin
     id 12 
     name upperback
     direction 0.0222598 0.999722 -0.0078355   
     length 2.06383   
     axis 0 0 0   XYZ
    dof rx ry rz
    limits (-20.0 45.0)
           (-30.0 30.0)
           (-30.0 30.0)
  end
  begin
     id 13 
     name thorax
     direction 0.0219654 0.999405 0.0265994   
     length 2.07163   
     axis 0 0 0   XYZ
    dof rx ry rz
    limits (-20.0 45.0)
           (-30.0 30.0)
           (-30.0 30.0)
  end
  begin
     id 14 
     name lowerneck
     direction 0.0213282 0.988147 0.15202   
     length 1.75969   
     axis 0 0 0   XYZ
    dof rx ry rz
    limits (-20.0 45.0)
           (-30.0 30.0)
           (-30.0 30.0)
  end
  begin
     id 15 
     name upperneck
     direction -0.0546456 0.982624 -0.177379   
     length 1.79244   
     axis 0 0 0   XYZ
    dof rx ry rz
    limits (-20.0 45.0)
           (-30.0 30.0)
           (-30.0 30.0)
  end
  begin
     id 16
     name head
     direction -0.0199987 0.996855 -0.076686  
     length 1.80555  
     axis 0 0 0   XYZ
    dof rx ry rz
    limits (-20.0 45.0)
           (-30.0 30.0)
           (-30.0 30.0)
  end
  begin
     id 17 
     name lclavicle
     direction 0.929565 0.363219 -0.063096  
     length 3.55722  
     axis 0 0 0   XYZ
    dof ry rz
    limits (-20.0 10.0)
           (0.0 20.0)
  end
  begin
     id 18 
     name lhumerus
     direction 1 -4.48993e-011 -2.36203e-027   
     length 4.92785   
     axis 180 -30 -90   XYZ
    dof rx ry rz
    limits (-60.0 90.0)
           (-90.0 90.0)
           (-90.0 90.0)
  end
  begin
     id 19
     name lradius
     direction 1 -4.48947e-011 2.02997e-027   
     length 3.44052   
     axis 180 -30 -90   XYZ
    dof rx
    limits (-10.0 170.0)
  end
  begin
     id 20
     name lwrist
     direction 1 -4.48962e-011 1.45991e-027   
     length 1.72026   
     axis 1.49639e-024 90 90   XYZ
    dof ry
    limits (-180.0 0.0)
 end
  begin
     id 21 
     name lhand
     direction 1 -4.48984e-011 2.91906e-027   
     length 0.654326   
     axis -1.863e-015 90 90   XYZ
    dof rx rz
    limits (-90.0 90.0)
           (-45.0 45.0)
  end
  begin
     id 22 
     name lfingers
     direction 1 -4.48961e-011 5.83968e-027   
     length 0.527534   
     axis -3.72598e-015 90 90   XYZ
    dof rx
    limits (0.0 90.0)
  end
  begin
     id 23
     name lthumb
     direction 0.707107 -6.34963e-011 0.707107   
     length 0.757437   
     axis -90 45 -6.68868e-015   XYZ
    dof rx rz
    limits (-45.0 45.0)
           (-45.0 45.0)
  end
  begin
     id 24 
     name rclavicle
     direction -0.902944 0.422599 -0.0781198   
     length 3.54432  
     axis 0 0 0   XYZ 
    dof ry rz
    limits (-10.0 20.0)
           (-20.0 0.0)
  end
  begin
     id 25 
     name rhumerus
     direction -1 -4.48953e-011 -4.75835e-028  
     length 5.09181   
     axis 180 30 90   XYZ
    dof rx ry rz
    limits (-90.0 60.0)
           (-90.0 90.0)
           (-90.0 90.0)
  end
  begin
     id 26 
     name rradius
     direction -1 -4.48986e-011 -3.25889e-027   
     length 3.49865   
     axis 180 30 90   XYZ
    dof rx
    limits (-10.0 170.0)
  end
  begin
     id 27 
     name rwrist
     direction -1 -4.48963e-011 1.45989e-027   
     length 1.74933   
     axis 1.49639e-024 -90 -90   XYZ
    dof ry
    limits (-180.0 0.0)
  end
  begin
     id 28
     name rhand
     direction -1 -4.49003e-011 2.91844e-027   
     length 0.66641   
     axis -1.863e-015 -90 -90   XYZ
    dof rx rz
    limits (-90.0 90.0)
           (-45.0 45.0)
  end
  begin
     id 29
     name rfingers
     direction -1 -4.48973e-011 5.83886e-027   
     length 0.537277   
     axis -3.72598e-015 -90 -90   XYZ
    dof rx
    limits (0.0 90.0)
  end
  begin
     id 30
     name rthumb
     direction -0.707107 -6.34976e-011 0.707107   
     length 0.771425   
     axis -90 -45 6.68868e-015   XYZ
    dof rx rz
    limits (-45.0 45.0)
           (-45.0 45.0)
  end
:hierarchy
  begin
    root lhipjoint rhipjoint lowerback
    lhipjoint lfemur
    lfemur ltibia
    ltibia lfoot
    lfoot ltoes
    rhipjoint rfemur
    rfemur rtibia
    rtibia rfoot
    rfoot rtoes
    lowerback upperback
    upperback thorax
    thorax lowerneck lclavicle rclavicle
    lowerneck upperneck
    upperneck head
    lclavicle lhumerus
    lhumerus lradius
    lradius lwrist
    lwrist lhand lthumb
    lhand lfingers
    rclavicle rhumerus
    rhumerus rradius
    rradius rwrist
    rwrist rhand rthumb
    rhand rfingers
  end

#!OML:ASF H:\LiuWeirdWalks\Patient Classification 1\Patient 1\Session 1\male.ASF
:FULLY-SPECIFIED
:DEGREES
1
root -0.185848 18.0043 -31.6813 -0.460169 7.3838 -3.20103
lowerback 5.15375 -5.21964 6.06441
upperback -1.62401 -6.47345 1.45241
thorax -5.0814 -3.36116 -1.22015
lowerneck -21.9816 2.30675 8.58985
upperneck 24.7538 2.66797 -8.46162
head 12.0238 0.892499 -4.21035
rclavicle 2.04872e-014 1.59028e-015
rhumerus -32.2242 -10.85 -77.2489
rradius 22.7522
rwrist -0.534654
rhand -18.0775 -3.1136
rfingers 7.12502
rthumb 8.19553 -32.9347
lclavicle 2.04872e-014 1.59028e-015
lhumerus -39.3071 12.9954 77.4071
lradius 32.7607
lwrist 10.3391
lhand -14.2458 0.00156645
lfingers 7.12502
lthumb 11.8921 29.6438
rfemur -5.789 -2.5336 23.8286
rtibia 26.0607
rfoot -11.7891 -22.761
rtoes -1.68337
lfemur -7.16327 -4.53786 -14.7635
ltibia 25.3112
lfoot -10.1833 13.9919
ltoes -6.96958
2
root -0.197445 18.011 -31.6663 -0.0606478 7.39085 -3.18153
lowerback 4.68767 -5.11665 5.88937
upperback -1.73737 -6.3769 1.52583
thorax -4.90087 -3.30764 -1.09914
lowerneck -22.0753 2.22687 8.59479
upperneck 24.7589 2.57118 -8.55234
head 12.0352 0.836092 -4.26351
rclavicle 7.19228e-014 8.74653e-015
rhumerus -32.304 -10.8928 -77.1454
rradius 22.6924
rwrist -0.503269
rhand -17.9548 -3.14425
rfingers 7.12502
rthumb 8.31399 -32.9606
lclavicle 7.19228e-014 8.74653e-015
lhumerus -39.2708 12.8845 77.5159
lradius 32.8444
lwrist 10.4459
lhand -14.3964 -0.241493
lfingers 7.12502
lthumb 11.7469 29.4091
rfemur -6.15219 -2.42396 23.8858
rtibia 26.0154
rfoot -11.7747 -22.8641
rtoes -1.71722
lfemur -7.52897 -4.57013 -14.7177
ltibia 25.246
lfoot -10.1047 14.0934
ltoes -5.93889
3
root -0.211315 18.0199 -31.6517 0.353696 7.37683 -3.21864
lowerback 4.18764 -5.00527 5.7294
upperback -1.85361 -6.26787 1.62808
thorax -4.70243 -3.24771 -0.959875
lowerneck -22.1075 2.13952 8.53461
upperneck 24.7562 2.47501 -8.58526
head 12.0297 0.782273 -4.28206
rclavicle -2.48854e-014 1.94809e-014
rhumerus -32.2794 -11.2047 -76.9775
rradius 22.4935
rwrist -0.161766
rhand -17.9815 -3.33436
rfingers 7.12502
rthumb 8.28821 -33.1518
lclavicle -2.48854e-014 1.94809e-014
lhumerus -39.2517 12.8718 77.5999
lradius 32.9153
lwrist 10.4697
lhand -14.4001 -0.284934
lfingers 7.12502
lthumb 11.7433 29.3659
rfemur -6.55879 -2.24949 24.0187
rtibia 26.0103
rfoot -11.8061 -22.9835
rtoes -1.64351
lfemur -7.94144 -4.69717 -14.6057
ltibia 25.2485
lfoot -10.016 14.3134
ltoes -6.47422
4
root -0.221914 18.0235 -31.6386 0.722478 7.37948 -3.19258
lowerback 3.86272 -4.92672 5.85244
upperback -1.91714 -6.18403 1.48295
thorax -4.60971 -3.21267 -1.21028
lowerneck -22.4479 1.8731 8.10149
upperneck 24.9021 2.07969 -8.07237
head 12.1003 0.625953 -4.08328
rclavicle 1.6114e-014 -3.97569e-016
rhumerus -32.3242 -11.5096 -77.1671
rradius 22.5049
rwrist -0.125068
rhand -17.9172 -3.18728
rfingers 7.12502
rthumb 8.3502 -33.0022
lclavicle 1.6114e-014 -3.97569e-016
lhumerus -39.1119 12.6595 77.4449
lradius 32.9486
lwrist 10.4941
lhand -14.5363 -0.251957
lfingers 7.12502
lthumb 11.612 29.4063
rfemur -6.91309 -2.16089 24.0555
rtibia 26.0077
rfoot -11.77 -23.0535
rtoes -1.7283
lfemur -8.3082 -4.50373 -14.5547
ltibia 25.2485
lfoot -10.005 14.17
ltoes -6.50002
5
root -0.230381 18.0265 -31.6275 0.95352 7.38277 -3.19772
lowerback 3.63549 -4.85821 5.87071
upperback -1.96721 -6.10842 1.44714
thorax -4.53425 -3.17657 -1.28223
lowerneck -22.639 1.72037 7.88848
upperneck 24.972 1.86657 -7.86539
head 12.1394 0.534817 -4.00666
rclavicle 4.70778e-014 7.55382e-015
rhumerus -32.3398 -11.7313 -77.2014
rradius 22.4445
rwrist -0.00593069
rhand -17.9035 -3.14858
rfingers 7.12502
rthumb 8.3635 -32.963
lclavicle 4.70778e-014 7.55382e-015
lhumerus -39.0348 12.5576 77.4117
lradius 32.9876
lwrist 10.5347
lhand -14.6058 -0.306531
lfingers 7.12502
lthumb 11.5449 29.3555
rfemur -7.12887 -2.09405 24.1106
rtibia 26.0058
rfoot -11.7701 -23.1089
rtoes -1.7485
lfemur -8.53917 -4.49207 -14.5013
ltibia 25.2654
lfoot -9.98332 14.202
ltoes -6.64839
6
root -0.236515 18.0279 -31.6183 1.08923 7.38583 -3.2038
lowerback 3.51758 -4.80747 5.90475
upperback -1.99553 -6.04825 1.40988
thorax -4.50069 -3.14859 -1.35366
lowerneck -22.8181 1.59222 7.69929
upperneck 25.0421 1.68915 -7.6847
head 12.1812 0.458942 -3.93844
rclavicle 2.22515e-014 -1.66979e-014
rhumerus -32.3461 -11.9139 -77.2457
rradius 22.3972
rwrist 0.0922346
rhand -17.9011 -3.08135
rfingers 7.12502
rthumb 8.36579 -32.8957
lclavicle 2.22515e-014 -1.66979e-014
lhumerus -38.9722 12.4915 77.3751
lradius 33.0116
lwrist 10.5728
lhand -14.6478 -0.34727
lfingers 7.12502
lthumb 11.5044 29.317
rfemur -7.26058 -2.0615 24.1497
rtibia 26.0313
rfoot -11.7913 -23.1394
rtoes -1.76348
lfemur -8.67364 -4.49251 -14.4635
ltibia 25.2895
lfoot -9.97599 14.2313
ltoes -6.86821
7
root -0.24036 18.0278 -31.6101 1.14669 7.3891 -3.20054
lowerback 3.47504 -4.77905 5.93029
upperback -2.01046 -6.01274 1.38222
thorax -4.49549 -3.13249 -1.40217
lowerneck -22.9582 1.51212 7.57011
upperneck 25.0961 1.58139 -7.57307
head 12.2176 0.411461 -3.89471
rclavicle 8.85834e-014 -4.37326e-015
rhumerus -32.3513 -12.0046 -77.2998
rradius 22.3726
rwrist 0.143635
rhand -17.9023 -3.0135
rfingers 7.12502
rthumb 8.36458 -32.8279
lclavicle 8.85834e-014 -4.37326e-015
lhumerus -38.9479 12.4854 77.3376
lradius 33.0191
lwrist 10.6089
lhand -14.6651 -0.389045
lfingers 7.12502
lthumb 11.4878 29.2762
rfemur -7.30271 -2.06526 24.1627
rtibia 26.0451
rfoot -11.8126 -23.1419
rtoes -1.77897
lfemur -8.71483 -4.50233 -14.4514
ltibia 25.299
lfoot -9.97372 14.2576
ltoes -7.02851
